<svg width="49" height="49" viewBox="0 0 49 49" fill="none" xmlns="http://www.w3.org/2000/svg">
<circle cx="24.5" cy="24.5" r="24.5" fill="white"/>
<g clip-path="url(#clip0_183_58)">
<path d="M24.8266 8.49316C15.8025 8.49316 8.49329 15.8023 8.49329 24.8265C8.49329 32.054 13.1687 38.1586 19.6612 40.3227C20.4779 40.4657 20.7841 39.9757 20.7841 39.5469C20.7841 39.159 20.7637 37.8727 20.7637 36.5048C16.66 37.2602 15.5983 35.5044 15.2716 34.5857C15.0879 34.1161 14.2916 32.6665 13.5975 32.2786C13.0258 31.9723 12.2091 31.2169 13.577 31.1965C14.8633 31.1761 15.782 32.3807 16.0883 32.8707C17.5583 35.3411 19.9062 34.6469 20.8454 34.2182C20.9883 33.1565 21.417 32.4419 21.8866 32.0336C18.2525 31.6252 14.455 30.2165 14.455 23.969C14.455 22.1927 15.0879 20.7227 16.1291 19.5794C15.9658 19.1711 15.3941 17.4969 16.2925 15.2511C16.2925 15.2511 17.6604 14.8223 20.7841 16.9252C22.0908 16.5577 23.4791 16.374 24.8675 16.374C26.2558 16.374 27.6441 16.5577 28.9508 16.9252C32.0745 14.8019 33.4425 15.2511 33.4425 15.2511C34.3408 17.4969 33.7691 19.1711 33.6058 19.5794C34.647 20.7227 35.28 22.1723 35.28 23.969C35.28 30.2369 31.462 31.6252 27.8279 32.0336C28.42 32.544 28.9304 33.524 28.9304 35.0552C28.9304 37.2398 28.91 38.9957 28.91 39.5469C28.91 39.9757 29.2162 40.4861 30.0329 40.3227C33.2755 39.2284 36.0932 37.1446 38.0893 34.3647C40.0854 31.5848 41.1594 28.2488 41.16 24.8265C41.16 15.8023 33.8508 8.49316 24.8266 8.49316Z" fill="#415EAC"/>
</g>
<defs>
<clipPath id="clip0_183_58">
<rect width="32.6667" height="32.6667" fill="white" transform="translate(8.49329 8.49316)"/>
</clipPath>
</defs>
</svg>
