<svg width="49" height="49" viewBox="0 0 49 49" fill="none" xmlns="http://www.w3.org/2000/svg">
<circle cx="24.5" cy="24.5" r="24.5" fill="white"/>
<path d="M35.2917 10.625C36.1094 10.625 36.8937 10.9499 37.4719 11.5281C38.0501 12.1063 38.375 12.8906 38.375 13.7083V35.2917C38.375 36.1094 38.0501 36.8937 37.4719 37.4719C36.8937 38.0501 36.1094 38.375 35.2917 38.375H13.7083C12.8906 38.375 12.1063 38.0501 11.5281 37.4719C10.9499 36.8937 10.625 36.1094 10.625 35.2917V13.7083C10.625 12.8906 10.9499 12.1063 11.5281 11.5281C12.1063 10.9499 12.8906 10.625 13.7083 10.625H35.2917ZM34.5208 34.5208V26.35C34.5208 25.0171 33.9913 23.7387 33.0488 22.7962C32.1063 21.8537 30.8279 21.3242 29.495 21.3242C28.1846 21.3242 26.6583 22.1258 25.9183 23.3283V21.6171H21.6171V34.5208H25.9183V26.9204C25.9183 25.7333 26.8742 24.7621 28.0613 24.7621C28.6337 24.7621 29.1827 24.9895 29.5874 25.3942C29.9922 25.799 30.2196 26.348 30.2196 26.9204V34.5208H34.5208ZM16.6067 19.1967C17.2936 19.1967 17.9524 18.9238 18.4381 18.4381C18.9238 17.9524 19.1967 17.2936 19.1967 16.6067C19.1967 15.1729 18.0404 14.0013 16.6067 14.0013C15.9157 14.0013 15.253 14.2757 14.7644 14.7644C14.2757 15.253 14.0013 15.9157 14.0013 16.6067C14.0013 18.0404 15.1729 19.1967 16.6067 19.1967ZM18.7496 34.5208V21.6171H14.4792V34.5208H18.7496Z" fill="#415EAC"/>
</svg>
