<svg width="50" height="50" viewBox="0 0 50 50" fill="none" xmlns="http://www.w3.org/2000/svg">
<circle cx="25.5" cy="24.5" r="24.5" fill="white"/>
<path d="M41.67 15.1233C40.4675 15.6699 39.1713 16.0291 37.8283 16.2009C39.2026 15.3732 40.2645 14.0614 40.7642 12.4841C39.4681 13.2649 38.0313 13.8115 36.5165 14.1239C35.2828 12.7808 33.5494 12 31.5817 12C27.9117 12 24.9134 14.9984 24.9134 18.6995C24.9134 19.2305 24.9758 19.7459 25.0851 20.23C19.5256 19.9489 14.5751 17.2784 11.28 13.2337C10.7022 14.2176 10.3743 15.3732 10.3743 16.5913C10.3743 18.9182 11.5455 20.9796 13.357 22.1508C12.2483 22.1508 11.2176 21.8385 10.3118 21.37V21.4168C10.3118 24.6651 12.6231 27.3824 15.6839 27.9914C14.7012 28.2604 13.6695 28.2978 12.6699 28.1008C13.0941 29.432 13.9248 30.5969 15.0452 31.4317C16.1657 32.2664 17.5196 32.729 18.9166 32.7545C16.5485 34.6292 13.6131 35.6425 10.5929 35.628C10.0619 35.628 9.53097 35.5967 9 35.5343C11.9672 37.4395 15.4965 38.5483 19.2757 38.5483C31.5817 38.5483 38.3437 28.335 38.3437 19.4804C38.3437 19.1837 38.3437 18.9026 38.328 18.6058C39.6398 17.6688 40.7642 16.482 41.67 15.1233Z" fill="#415EAC"/>
</svg>
